<svg xmlns="http://www.w3.org/2000/svg" width="8" height="12" viewBox="0 0 8 12" fill="none">
  <path d="M4.08706 11.8265L4.08762 11.826L7.16368 8.73499C7.39412 8.50343 7.39326 8.12889 7.16167 7.8984C6.93011 7.66793 6.55557 7.66882 6.3251 7.90038L4.25988 9.97565V0.591549C4.25988 0.264837 3.99505 0 3.66833 0C3.34162 0 3.07678 0.264837 3.07678 0.591549L3.07678 9.97562L1.01157 7.90041C0.7811 7.66885 0.406561 7.66796 0.174999 7.89843C-0.056622 8.12892 -0.0574207 8.50349 0.172988 8.73503L3.24904 11.826L3.24961 11.8265C3.48084 12.0582 3.85659 12.0575 4.08706 11.8265Z" fill="black"/>
</svg>