<svg width="13" height="20" viewBox="0 0 13 20" fill="none" xmlns="http://www.w3.org/2000/svg">
<g id="Group">
<g id="Group_2">
<path id="Vector" d="M7.61142 19.6154L7.61235 19.6145L12.7143 14.4879C13.0965 14.1038 13.0951 13.4826 12.711 13.1003C12.3269 12.718 11.7057 12.7195 11.3234 13.1036L7.89806 16.5456L7.89806 0.981143C7.89806 0.439258 7.4588 0 6.91691 0C6.37503 0 5.93577 0.439258 5.93577 0.981143L5.93577 16.5456L2.5104 13.1036C2.12815 12.7195 1.50694 12.7181 1.12287 13.1003C0.738703 13.4826 0.737378 14.1039 1.11953 14.4879L6.22148 19.6146L6.22241 19.6155C6.60594 19.9997 7.22916 19.9985 7.61142 19.6154Z" fill="#E55738"/>
</g>
</g>
</svg>
