<svg width="187" height="36" viewBox="0 0 187 36" fill="none" xmlns="http://www.w3.org/2000/svg">
<path d="M73.0918 9.22943H78.3337V23.6248H87.176V27.787H73.0918V9.22943ZM93.17 9.22943H98.4119V27.787H93.17V9.22943ZM112.586 28.1582C111.086 28.1582 109.63 27.9726 108.218 27.6014C106.806 27.2303 105.659 26.7354 104.777 26.1169L106.497 22.2463C107.327 22.7941 108.289 23.236 109.383 23.5718C110.477 23.9076 111.554 24.0755 112.613 24.0755C114.625 24.0755 115.631 23.5718 115.631 22.5644C115.631 22.0342 115.344 21.641 114.77 21.3847C114.197 21.1284 113.275 20.8589 112.004 20.5761C110.61 20.2757 109.445 19.9531 108.509 19.6085C107.574 19.2639 106.771 18.7115 106.1 17.9515C105.429 17.1916 105.094 16.1665 105.094 14.8763C105.094 13.7452 105.403 12.7245 106.021 11.8143C106.638 10.9041 107.561 10.1838 108.787 9.65368C110.014 9.12352 111.518 8.8584 113.301 8.8584C114.519 8.8584 115.719 8.99534 116.902 9.2693C118.084 9.54319 119.125 9.94533 120.026 10.4755L118.411 14.3726C116.646 13.4182 114.934 12.941 113.275 12.941C112.233 12.941 111.474 13.0956 110.998 13.405C110.521 13.7142 110.283 14.1163 110.283 14.6112C110.283 15.106 110.566 15.4772 111.13 15.7246C111.695 15.972 112.604 16.2283 113.857 16.4934C115.269 16.7939 116.438 17.1164 117.365 17.4611C118.292 17.8057 119.095 18.3536 119.774 19.1048C120.454 19.8559 120.793 20.8766 120.793 22.1667C120.793 23.2802 120.485 24.2877 119.867 25.189C119.249 26.0903 118.323 26.8106 117.087 27.3497C115.852 27.8887 114.351 28.1582 112.586 28.1582H112.586ZM130.811 13.3916H125.119V9.22943H141.719V13.3916H136.053V27.787H130.811V13.3916ZM162.485 23.7309V27.787H147.607V9.22943H162.141V13.2856H152.796V16.4139H161.029V20.3375H152.796V23.7309H162.485H162.485ZM177.427 22.856H174.568V27.787H169.326V9.22943H177.798C179.475 9.22943 180.931 9.50782 182.166 10.0646C183.402 10.6213 184.355 11.4166 185.025 12.4506C185.696 13.4845 186.031 14.6996 186.031 16.0958C186.031 17.439 185.718 18.6099 185.092 19.6085C184.465 20.6071 183.569 21.3891 182.404 21.9547L186.402 27.7871H180.79L177.427 22.8561L177.427 22.856ZM180.737 16.0958C180.737 15.2298 180.463 14.5581 179.916 14.0809C179.369 13.6037 178.557 13.3652 177.48 13.3652H174.568V18.7998H177.48C178.557 18.7998 179.369 18.5656 179.916 18.0973C180.463 17.6289 180.737 16.9618 180.737 16.0958Z" fill="black"/>
<path fill-rule="evenodd" clip-rule="evenodd" d="M3.90579 0H62.0241C64.1721 0 65.9298 1.76012 65.9298 3.91122V35.8409H0V3.91122C0 1.76005 1.75775 0 3.90571 0L3.90579 0Z" fill="black"/>
<path d="M15.4962 22.8568H12.7967V27.5124H7.84766V9.99146H15.8462C17.4291 9.99146 18.8039 10.2543 19.9704 10.7798C21.1369 11.3055 22.0367 12.0564 22.6699 13.0326C23.3031 14.0087 23.6197 15.1559 23.6197 16.4742C23.6197 17.7424 23.324 18.8479 22.7324 19.7906C22.1408 20.7334 21.2952 21.4719 20.1954 22.0058L23.9697 27.5124H18.6706L15.4962 22.8568ZM18.6207 16.4742C18.6207 15.6565 18.3623 15.0224 17.8458 14.572C17.3292 14.1214 16.5626 13.8961 15.5462 13.8961H12.7967V19.0273H15.5462C16.5626 19.0273 17.3292 18.8062 17.8458 18.3641C18.3623 17.9218 18.6207 17.2919 18.6207 16.4742V16.4742Z" fill="white"/>
<path d="M51.9077 9.99153C53.4907 9.99153 54.8654 10.2543 56.032 10.7799C57.1984 11.3056 58.0982 12.0565 58.7314 13.0327C59.3647 14.0088 59.6812 15.156 59.6812 16.4742C59.6812 17.7925 59.3647 18.9355 58.7314 19.9034C58.0982 20.8712 57.1984 21.6179 56.032 22.1435C54.8654 22.6691 53.4907 22.9319 51.9077 22.9319H48.8583V27.5124H43.9092V9.99146H51.9077V9.99153ZM51.6077 19.0274C52.6242 19.0274 53.3908 18.8063 53.9073 18.3641C54.4238 17.9219 54.6822 17.292 54.6822 16.4743C54.6822 15.6566 54.4238 15.0226 53.9073 14.5721C53.3908 14.1215 52.6242 13.8963 51.6077 13.8963H48.8583V19.0275H51.6077V19.0274Z" fill="white"/>
<path fill-rule="evenodd" clip-rule="evenodd" d="M31.0743 35.8465H36.0237V17.6728C36.0237 16.3095 34.9103 15.1946 33.5488 15.1946C32.1877 15.1946 31.0742 16.3095 31.0742 17.6728V35.8465H31.0743Z" fill="white"/>
<path fill-rule="evenodd" clip-rule="evenodd" d="M33.2016 13.9187C32.4871 12.9307 32.0984 11.3765 33.0984 11.4163C33.9957 11.4525 33.7387 13.4008 33.8758 13.8927C38.7547 11.9464 34.4613 5.62582 32.8334 5.16699C33.3101 7.31185 31.6016 7.69289 31.0645 9.67586C30.9479 10.1063 30.9283 10.5795 30.9954 11.0626C31.1608 12.2543 31.8141 13.6947 33.2015 13.9187H33.2016Z" fill="white"/>
</svg>
