<svg width="34" height="34" viewBox="0 0 34 34" fill="none" xmlns="http://www.w3.org/2000/svg">
<path d="M17.1147 10.6858C19.2655 10.6858 20.5419 11.8049 20.5419 13.6933C20.5419 15.337 19.7026 16.0889 18.4262 16.9981C17.4295 17.715 17.1497 18.397 17.1497 19.4286V20.1805H16.3978C16.2404 19.656 16.1705 19.044 16.1705 18.5369C16.1705 17.6976 16.5902 16.9806 17.2546 16.5085C18.4436 15.6517 19.3704 15.0048 19.3704 13.8157C19.3704 12.4693 18.5486 11.7349 17.0448 11.7349C15.7159 11.7349 14.7367 12.7491 14.7367 14.5501L13.6001 14.4102C13.6001 12.0846 14.999 10.6858 17.1147 10.6858ZM16.1006 23.1356V21.4395H17.5519V23.1356H16.1006Z" fill="#3C88F9"/>
<circle cx="17" cy="17" r="16.5" stroke="#3C88F9"/>
</svg>
