<svg width="28" height="18" viewBox="0 0 28 18" fill="none" xmlns="http://www.w3.org/2000/svg">
<path d="M25.4424 0H2.5551C1.14396 0 0 1.32263 0 2.95418V15.0458C0 16.6773 1.14396 17.9999 2.5551 17.9999H25.4424C26.8535 17.9999 27.9975 16.6773 27.9975 15.0458V2.95418C27.9975 1.32263 26.8535 0 25.4424 0Z" fill="#F0F0F0"/>
<path fill-rule="evenodd" clip-rule="evenodd" d="M15.2838 0H12.7137V7.51425H0V10.4858H12.7137V18H15.2838V10.4858H27.9975V7.51425H15.2838V0Z" fill="#D80027"/>
<path fill-rule="evenodd" clip-rule="evenodd" d="M11.6474 17.9992V11.7178L2.30432 17.9848C2.38689 17.9942 2.47048 17.999 2.5551 17.9992H11.6474ZM5.99496 11.7178L0.0632131 15.6966C0.0211571 15.4828 -4.62291e-05 15.2642 7.56774e-08 15.045V11.7178H5.99496Z" fill="#0052B4"/>
<path fill-rule="evenodd" clip-rule="evenodd" d="M8.11668 11.7178L0.5 16.8021C0.786543 17.2477 1.17506 17.592 1.62176 17.796L10.7273 11.7178H8.11668Z" fill="#D80027"/>
<path fill-rule="evenodd" clip-rule="evenodd" d="M11.6474 0V6.28139L2.30432 0.0143516C2.38689 0.0049102 2.47048 0.000126447 2.5551 0H11.6474ZM5.99496 6.28139L0.0632131 2.30254C0.0211571 2.51634 -4.62291e-05 2.73492 7.56774e-08 2.95418V6.28139H5.99496Z" fill="#0052B4"/>
<path fill-rule="evenodd" clip-rule="evenodd" d="M8.11668 6.28131L0.5 1.19694C0.786561 0.751331 1.17508 0.407129 1.62176 0.203125L10.7273 6.28131H8.11668Z" fill="#D80027"/>
<path fill-rule="evenodd" clip-rule="evenodd" d="M16.3516 17.9992V11.7178L25.6946 17.9848C25.612 17.9942 25.5285 17.999 25.4438 17.9992H16.3516ZM22.004 11.7178L27.9357 15.6966C27.9778 15.4828 27.999 15.2642 27.9989 15.045V11.7178H22.004Z" fill="#0052B4"/>
<path fill-rule="evenodd" clip-rule="evenodd" d="M19.884 11.7178L27.5007 16.8021C27.2142 17.2477 26.8257 17.592 26.379 17.796L17.2734 11.7178H19.884Z" fill="#D80027"/>
<path fill-rule="evenodd" clip-rule="evenodd" d="M16.3516 0V6.28139L25.6946 0.0143516C25.612 0.0049102 25.5285 0.000126447 25.4438 0H16.3516ZM22.004 6.28139L27.9357 2.30254C27.9778 2.51634 27.999 2.73492 27.9989 2.95418V6.28139H22.004Z" fill="#0052B4"/>
<path fill-rule="evenodd" clip-rule="evenodd" d="M19.884 6.28131L27.5007 1.19694C27.2142 0.751331 26.8256 0.407129 26.379 0.203125L17.2734 6.28131H19.884Z" fill="#D80027"/>
</svg>
