<svg xmlns="http://www.w3.org/2000/svg" width="21" height="20" viewBox="0 0 21 20" fill="none">
  <path d="M0.639654 9.34837H11.4419L8.73556 6.56859C8.61559 6.44541 8.5482 6.27832 8.5482 6.10412C8.5482 5.92991 8.61559 5.76283 8.73556 5.63965C8.85553 5.51647 9.0182 5.44727 9.18786 5.44727C9.35752 5.44727 9.52025 5.51647 9.64021 5.63965L13.4387 9.54087C13.4685 9.57091 13.4952 9.60396 13.5185 9.63956C13.5233 9.64746 13.5262 9.65535 13.531 9.66324C13.5486 9.69157 13.564 9.7213 13.5771 9.75211C13.5819 9.76396 13.5848 9.77678 13.5886 9.78862C13.5987 9.81669 13.6071 9.84541 13.6136 9.87454C13.6307 9.96019 13.6307 10.0485 13.6136 10.1342C13.6071 10.163 13.5988 10.1913 13.5886 10.2191C13.5886 10.2319 13.5819 10.2447 13.5771 10.2565C13.5643 10.287 13.5492 10.3163 13.5319 10.3444C13.5271 10.3523 13.5233 10.3612 13.5185 10.37C13.4952 10.4056 13.4684 10.4387 13.4387 10.4688L9.64021 14.369C9.52025 14.4922 9.35752 14.5614 9.18786 14.5614C9.0182 14.5614 8.85553 14.4922 8.73556 14.369C8.61559 14.2458 8.5482 14.0787 8.5482 13.9045C8.5482 13.7303 8.61559 13.5633 8.73556 13.4401L11.4419 10.6613H0.639654C0.469967 10.6613 0.307228 10.5921 0.187242 10.4689C0.0672541 10.3457 -0.000178337 10.1786 -0.000178337 10.0043C-0.000178337 9.83009 0.0672541 9.66299 0.187242 9.53979C0.307228 9.41659 0.469967 9.34837 0.639654 9.34837Z" fill="white"/>
  <path d="M1.60939 12.6241C1.69334 12.6176 1.77767 12.6284 1.85754 12.6557C1.93741 12.683 2.01123 12.7263 2.07465 12.7832C2.13807 12.84 2.18984 12.9093 2.22698 12.9868C2.26413 13.0644 2.28588 13.1488 2.291 13.2351C2.38714 14.6358 2.53517 16.0732 3.27833 16.9142C4.07807 17.6482 5.08808 18.096 6.15676 18.1906C7.75725 18.5109 9.38315 18.6788 11.0137 18.692C12.6201 18.6495 14.2215 18.4912 15.8062 18.2182C16.393 18.1892 16.9622 18.0037 17.4579 17.68C17.9535 17.3563 18.3584 16.9056 18.6327 16.3722C19.1601 15.1609 19.4471 13.8538 19.4768 12.5273C19.5201 11.8807 19.5375 11.2174 19.5499 10.6468C19.5836 9.13944 19.499 7.6646 19.4125 6.41981C19.4159 5.35908 19.1685 4.31338 18.6914 3.37251C18.3641 2.88759 17.9069 2.5104 17.3753 2.28662C16.8459 2.05868 16.2931 1.8931 15.7274 1.79304C13.0831 1.26283 10.3729 1.17288 7.70077 1.52656L7.42005 1.5621C6.14026 1.6118 4.89157 1.98109 3.78214 2.63806C3.34063 3.03494 2.98388 3.52138 2.73438 4.06672C2.48487 4.61206 2.34801 5.20451 2.33237 5.80682C2.32145 5.89231 2.29423 5.97475 2.25227 6.04945C2.21032 6.12414 2.15445 6.18961 2.08785 6.24213C2.02126 6.29466 1.94522 6.33323 1.86411 6.35558C1.78301 6.37794 1.6984 6.38367 1.61514 6.37245C1.53188 6.36124 1.45159 6.33329 1.37884 6.29021C1.30609 6.24713 1.24234 6.18977 1.19118 6.12139C1.14003 6.05301 1.10247 5.97493 1.08069 5.89165C1.05892 5.80838 1.05334 5.7215 1.06426 5.63601C1.097 4.85035 1.29134 4.08071 1.6345 3.3777C1.97767 2.67468 2.46187 2.05427 3.05529 1.55716C4.33267 0.77236 5.78007 0.325904 7.26719 0.258039L7.54117 0.223515C10.3464 -0.149258 13.1917 -0.0552774 15.9678 0.501873C16.6308 0.619369 17.2785 0.81444 17.8983 1.08329C18.6496 1.40864 19.2945 1.94818 19.7566 2.63806C20.3658 3.7646 20.6864 5.03154 20.6882 6.3201C20.7776 7.5945 20.8632 9.10883 20.8286 10.6705C20.8161 11.2559 20.7978 11.937 20.7536 12.6112C20.7151 14.1206 20.3789 15.6062 19.7653 16.9783C19.3932 17.6911 18.8529 18.2966 18.1938 18.7393C17.5347 19.182 16.7779 19.4478 15.9928 19.5123C14.3489 19.7947 12.6876 19.9577 11.0214 20H10.9099C9.23796 19.9807 7.57109 19.8059 5.92985 19.4778C4.58102 19.3438 3.31468 18.7503 2.33237 17.7918C1.31329 16.6388 1.12288 14.9498 1.01521 13.319C1.00491 13.1461 1.06159 12.976 1.17288 12.8458C1.28417 12.7157 1.44109 12.636 1.60939 12.6241Z" fill="white"/>
</svg>