<svg xmlns="http://www.w3.org/2000/svg" width="19" height="18" viewBox="0 0 19 18" fill="none">
  <path d="M0.684965 8.06978H10.0093L7.67325 5.67031C7.5697 5.56398 7.51152 5.41975 7.51152 5.26938C7.51152 5.11901 7.5697 4.97478 7.67325 4.86845C7.77681 4.76213 7.91722 4.70239 8.06367 4.70239C8.21012 4.70239 8.35058 4.76213 8.45414 4.86845L11.7329 8.23595C11.7586 8.26187 11.7817 8.2904 11.8018 8.32113C11.8059 8.32795 11.8084 8.33476 11.8126 8.34157C11.8278 8.36602 11.8411 8.39169 11.8524 8.41828C11.8565 8.42851 11.8591 8.43958 11.8624 8.4498C11.8711 8.47403 11.8783 8.49882 11.884 8.52396C11.8987 8.5979 11.8987 8.67413 11.884 8.74806C11.8783 8.77295 11.8711 8.79742 11.8624 8.82134C11.8624 8.83242 11.8565 8.84347 11.8524 8.85369C11.8413 8.87997 11.8283 8.90531 11.8134 8.92952C11.8092 8.93634 11.8059 8.94401 11.8018 8.95167C11.7817 8.9824 11.7586 9.01098 11.7329 9.03691L8.45414 12.4035C8.35058 12.5099 8.21012 12.5696 8.06367 12.5696C7.91722 12.5696 7.77681 12.5099 7.67325 12.4035C7.5697 12.2972 7.51152 12.153 7.51152 12.0026C7.51152 11.8522 7.5697 11.708 7.67325 11.6017L10.0093 9.20308H0.684965C0.538493 9.20308 0.398019 9.14331 0.294447 9.03697C0.190876 8.93062 0.132668 8.78638 0.132668 8.63599C0.132668 8.48559 0.190876 8.34135 0.294447 8.23501C0.398019 8.12866 0.538493 8.06978 0.684965 8.06978Z" fill="#DB4A2A"/>
  <path d="M1.51576 10.8969C1.58823 10.8914 1.66102 10.9007 1.72997 10.9242C1.79891 10.9478 1.86263 10.9852 1.91737 11.0343C1.97211 11.0834 2.0168 11.1431 2.04886 11.2101C2.08092 11.277 2.09971 11.3499 2.10412 11.4243C2.18711 12.6335 2.31489 13.8741 2.95637 14.6001C3.6467 15.2337 4.51853 15.6202 5.441 15.7019C6.82252 15.9784 8.22598 16.1233 9.63346 16.1347C11.02 16.098 12.4024 15.9614 13.7703 15.7257C14.2768 15.7007 14.7682 15.5406 15.196 15.2611C15.6238 14.9817 15.9733 14.5927 16.2101 14.1323C16.6654 13.0867 16.913 11.9584 16.9387 10.8134C16.9761 10.2553 16.991 9.68271 17.0018 9.1902C17.0309 7.88905 16.9578 6.61599 16.8832 5.5415C16.8861 4.62589 16.6725 3.72325 16.2608 2.91111C15.9782 2.49253 15.5836 2.16694 15.1247 1.97378C14.6677 1.77703 14.1906 1.6341 13.7023 1.54773C11.4197 1.09006 9.08035 1.01241 6.77377 1.3177L6.53146 1.34839C5.42676 1.39128 4.3489 1.71005 3.39126 2.27714C3.01015 2.61972 2.70221 3.03961 2.48684 3.51034C2.27147 3.98108 2.15333 4.49247 2.13983 5.01238C2.13041 5.08617 2.10691 5.15733 2.07069 5.22181C2.03448 5.28629 1.98626 5.34279 1.92877 5.38813C1.87128 5.43347 1.80565 5.46676 1.73564 5.48606C1.66563 5.50536 1.5926 5.5103 1.52073 5.50062C1.44886 5.49094 1.37955 5.46682 1.31676 5.42963C1.25396 5.39245 1.19893 5.34293 1.15478 5.28391C1.11062 5.22488 1.0782 5.15749 1.0594 5.0856C1.04061 5.01372 1.03579 4.93873 1.04522 4.86493C1.07347 4.18677 1.24123 3.52242 1.53744 2.91559C1.83366 2.30875 2.25161 1.77322 2.76385 1.34412C3.86647 0.666691 5.11585 0.281316 6.39951 0.222736L6.636 0.192936C9.0574 -0.128837 11.5135 -0.0477148 13.9098 0.433211C14.4821 0.534632 15.0411 0.703014 15.5761 0.935084C16.2247 1.21592 16.7813 1.68165 17.1802 2.27714C17.7061 3.24956 17.9828 4.34317 17.9844 5.45543C18.0615 6.55548 18.1354 7.86263 18.1055 9.21064C18.0947 9.71593 18.079 10.3039 18.0408 10.8859C18.0076 12.1887 17.7174 13.4711 17.1877 14.6555C16.8666 15.2707 16.4001 15.7934 15.8312 16.1755C15.2623 16.5577 14.609 16.7871 13.9313 16.8428C12.5123 17.0866 11.0784 17.2272 9.6401 17.2638H9.54386C8.10065 17.2471 6.66183 17.0962 5.24513 16.813C4.08084 16.6973 2.98775 16.185 2.13983 15.3576C1.26018 14.3624 1.09582 12.9044 1.00287 11.4968C0.993988 11.3476 1.04291 11.2007 1.13897 11.0884C1.23504 10.976 1.37049 10.9072 1.51576 10.8969Z" fill="#DB4A2A"/>
</svg>