<svg width="32" height="32" viewBox="0 0 32 32" fill="none" xmlns="http://www.w3.org/2000/svg">
<path fill-rule="evenodd" clip-rule="evenodd" d="M10.4858 2.91465C12.9092 2.80466 20.8815 2.77716 23.1121 2.99714C25.2601 3.20336 26.4581 3.90453 27.4494 5.07313C28.4683 6.28299 28.7024 8.11151 28.785 10.1325C28.8814 12.566 28.9227 20.485 28.7024 22.6985C28.4821 24.857 27.7524 26.0668 26.5957 27.0155C25.329 28.0603 23.6078 28.2803 21.5838 28.3628C19.1879 28.459 11.1468 28.4865 8.985 28.2666C6.78193 28.0466 5.62532 27.3592 4.64771 26.1906C3.57372 24.912 3.39472 23.1659 3.29834 21.1312C3.18818 18.8627 3.17442 10.6962 3.38095 8.57896C3.58749 6.53046 4.30349 5.19687 5.46009 4.26198C6.75439 3.20336 8.448 3.01088 10.4858 2.91465ZM0.448123 21.0487C0.572046 23.6196 0.764814 25.4207 1.94896 27.3042C2.96788 28.899 4.57887 30.0538 6.4377 30.6313C8.53061 31.2774 11.3395 31.2225 13.6527 31.2225C16.2138 31.2225 18.8575 31.2774 21.4048 31.1812C24.0622 31.0712 25.8109 30.8787 27.7248 29.6689C29.1568 28.7478 30.4098 27.2767 31.0569 25.2007C31.7454 23.001 31.6077 20.3475 31.6077 17.9416C31.6077 15.3569 31.6077 12.7722 31.6077 10.1875C31.5939 7.80905 31.2222 5.59557 30.0793 3.90453C29.5286 3.07963 28.9503 2.4747 28.193 1.89727C27.477 1.34734 26.5957 0.921138 25.5906 0.591178C23.5941 -0.0274967 20.5786 0.0137483 18.348 0.0137483C15.787 0.0137483 13.1433 -0.041245 10.596 0.0687416C8.0487 0.16498 6.16232 0.398702 4.30349 1.59481C0.241586 4.19324 0.420585 8.86767 0.406816 13.3084C0.393047 15.8381 0.33797 18.519 0.448123 21.0487Z" fill="#E55738"/>
<path fill-rule="evenodd" clip-rule="evenodd" d="M12.2632 13.7723V16.4973H14.7596V23.4286H17.024V16.484L19.4873 16.4973C19.5535 15.5978 19.6861 14.6851 19.7634 13.7723H17.024C17.024 13.5739 17.024 13.6268 17.024 13.2829C17.024 11.9337 17.0571 11.2326 17.3996 10.7696C17.7862 10.2405 18.3937 10.2538 19.5867 10.267H20.0506L20.0727 7.89922C19.2111 7.80663 18.3827 7.76694 17.6315 7.87276C16.8362 8.00504 16.1514 8.30928 15.6654 8.94421C14.7927 10.095 14.7264 11.4178 14.7375 13.0977C14.7485 13.4549 14.7596 13.5078 14.7596 13.7723H12.2632Z" fill="#E55738"/>
</svg>
