<svg width="106" height="21" viewBox="0 0 106 21" fill="none" xmlns="http://www.w3.org/2000/svg">
<path d="M41.5635 5.24835H44.5444V13.4345H49.5727V15.8014H41.5635V5.24835ZM52.9812 5.24835H55.9621V15.8014H52.9812V5.24835ZM64.0226 16.0125C63.1695 16.0125 62.3415 15.9069 61.5386 15.6959C60.7357 15.4848 60.0833 15.2034 59.5815 14.8516L60.56 12.6506C61.0317 12.9621 61.5787 13.2134 62.201 13.4044C62.8233 13.5953 63.4355 13.6908 64.0377 13.6908C65.1819 13.6908 65.7539 13.4044 65.7539 12.8315C65.7539 12.53 65.5908 12.3064 65.2646 12.1606C64.9385 12.0149 64.4141 11.8616 63.6914 11.7008C62.8985 11.53 62.2361 11.3465 61.7042 11.1506C61.1722 10.9546 60.7156 10.6405 60.3342 10.2083C59.9527 9.77613 59.7621 9.1932 59.7621 8.4595C59.7621 7.8163 59.9377 7.23588 60.289 6.71829C60.6403 6.20066 61.1647 5.79108 61.8622 5.4896C62.5597 5.18812 63.4154 5.03735 64.429 5.03735C65.1216 5.03735 65.8041 5.11523 66.4765 5.27102C67.149 5.42677 67.7411 5.65545 68.253 5.95694L67.3347 8.17307C66.331 7.63033 65.3575 7.35898 64.4141 7.35898C63.8219 7.35898 63.3904 7.44692 63.1194 7.62283C62.8483 7.7987 62.7129 8.02733 62.7129 8.30874C62.7129 8.59015 62.8735 8.80122 63.1946 8.94193C63.5158 9.08263 64.0327 9.22836 64.7453 9.37913C65.5482 9.55001 66.2131 9.73338 66.7401 9.92941C67.267 10.1254 67.7236 10.4369 68.1101 10.8641C68.4965 11.2912 68.6897 11.8717 68.6897 12.6053C68.6897 13.2385 68.5141 13.8114 68.1628 14.324C67.8115 14.8366 67.2846 15.2461 66.582 15.5527C65.8795 15.8592 65.0264 16.0125 64.0227 16.0125H64.0226ZM74.3866 7.61524H71.1498V5.24835H80.5892V7.61524H77.3674V15.8014H74.3866V7.61524ZM92.3983 13.4948V15.8014H83.9374V5.24835H92.2026V7.55493H86.8882V9.3339H91.5703V11.5651H86.8882V13.4948H92.3983H92.3983ZM100.895 12.9973H99.2695V15.8014H96.2886V5.24835H101.106C102.06 5.24835 102.888 5.40665 103.59 5.72327C104.293 6.03988 104.835 6.49213 105.216 7.08009C105.598 7.66805 105.788 8.35904 105.788 9.153C105.788 9.91683 105.61 10.5827 105.254 11.1506C104.897 11.7184 104.388 12.1631 103.726 12.4847L105.999 15.8014H102.807L100.895 12.9973L100.895 12.9973ZM102.777 9.153C102.777 8.66052 102.622 8.27856 102.311 8.00722C101.999 7.73583 101.538 7.60019 100.926 7.60019H99.2695V10.6907H100.926C101.538 10.6907 101.999 10.5575 102.311 10.2912C102.622 10.0248 102.777 9.64544 102.777 9.153Z" fill="black"/>
<path fill-rule="evenodd" clip-rule="evenodd" d="M2.22108 0H35.2709C36.4924 0 37.492 1.00092 37.492 2.22417V20.3814H0V2.22417C0 1.00088 0.999571 0 2.22104 0L2.22108 0Z" fill="black"/>
<path d="M8.81234 12.998H7.27725V15.6454H4.46289V5.68188H9.01135C9.91154 5.68188 10.6933 5.83133 11.3567 6.13021C12.02 6.42914 12.5317 6.85616 12.8918 7.41126C13.2519 7.96637 13.4319 8.61873 13.4319 9.36837C13.4319 10.0896 13.2637 10.7182 12.9273 11.2543C12.5909 11.7905 12.11 12.2104 11.4846 12.514L13.6309 15.6454H10.6175L8.81234 12.998ZM10.5891 9.36837C10.5891 8.90339 10.4422 8.54283 10.1485 8.28665C9.85473 8.03043 9.4188 7.90235 8.84079 7.90235H7.27725V10.8203H8.84079C9.4188 10.8203 9.85473 10.6945 10.1485 10.4431C10.4422 10.1916 10.5891 9.8334 10.5891 9.36842V9.36837Z" fill="white"/>
<path d="M29.5187 5.68193C30.4189 5.68193 31.2007 5.83137 31.864 6.13026C32.5273 6.42918 33.039 6.8562 33.3991 7.41131C33.7592 7.96641 33.9392 8.61877 33.9392 9.36842C33.9392 10.1181 33.7592 10.7681 33.3991 11.3184C33.039 11.8688 32.5273 12.2934 31.864 12.5924C31.2007 12.8912 30.4189 13.0407 29.5187 13.0407H27.7846V15.6454H24.9702V5.68188H29.5187V5.68193ZM29.3481 10.8203C29.9261 10.8203 30.3621 10.6946 30.6558 10.4431C30.9495 10.1917 31.0965 9.83344 31.0965 9.36846C31.0965 8.90347 30.9495 8.54291 30.6558 8.28673C30.3621 8.03052 29.9261 7.90243 29.3481 7.90243H27.7846V10.8203H29.3481V10.8203Z" fill="white"/>
<path fill-rule="evenodd" clip-rule="evenodd" d="M17.6709 20.3846H20.4855V10.0499C20.4855 9.27464 19.8523 8.64062 19.0781 8.64062C18.3041 8.64062 17.6709 9.27464 17.6709 10.0499V20.3846H17.6709Z" fill="white"/>
<path fill-rule="evenodd" clip-rule="evenodd" d="M18.8804 7.91505C18.4741 7.35318 18.2531 6.46934 18.8217 6.49198C19.332 6.51259 19.1858 7.62049 19.2638 7.90025C22.0383 6.79342 19.5967 3.19915 18.671 2.93823C18.9421 4.15794 17.9705 4.37462 17.6651 5.50227C17.5988 5.74703 17.5877 6.01615 17.6258 6.29083C17.7199 6.96854 18.0914 7.78766 18.8804 7.91505H18.8804Z" fill="white"/>
</svg>
