<svg width="622" height="549" viewBox="0 0 622 549" fill="none" xmlns="http://www.w3.org/2000/svg">
<g clip-path="url(#clip0_1386_2155)">
<path d="M106.577 531.192C75.4915 526.746 45.2941 508.077 37.3008 484.963C51.5124 495.631 77.269 503.632 77.269 503.632C77.269 503.632 56.8411 464.515 0 447.625C48.8482 450.292 84.372 487.63 84.372 487.63C84.372 487.63 56.8411 459.181 54.177 430.733C61.28 446.735 84.372 473.406 84.372 473.406C84.372 473.406 87.9261 463.627 78.1557 452.959C81.7078 445.847 96.8065 468.072 96.8065 468.072C96.8065 468.072 88.814 412.063 46.1836 383.615C68.3861 388.949 109.241 455.626 109.241 455.626C109.241 455.626 98.5836 427.177 108.352 403.174C114.57 442.291 142.103 458.293 142.103 458.293C142.103 458.293 168.747 508.966 106.577 531.191L106.577 531.192Z" fill="#379E80"/>
<path d="M477.617 483.366C492.761 437.886 528.101 384.32 551.322 371.182C524.061 419.694 520.024 445.97 520.024 445.97C520.024 445.97 567.479 402.512 591.71 331.764C579.595 408.577 529.111 456.078 529.111 456.078C529.111 456.078 581.614 424.748 610.895 432.832C554.352 452.035 543.245 494.483 543.245 494.483C543.245 494.483 567.479 493.472 583.634 467.195C586.661 480.333 564.449 500.547 564.449 500.547C564.449 500.547 603.825 491.45 622 442.938C617.96 490.442 571.516 520.762 571.516 520.762C571.516 520.762 489.732 548.049 477.616 483.366H477.617Z" fill="#379E80"/>
<path d="M505.467 493.77H131.904V132.883H505.467V493.77Z" fill="#D3CFC9"/>
<path d="M484.556 165.029C484.556 256.173 410.742 330.06 319.687 330.06C228.635 330.06 154.82 256.173 154.82 165.029C154.82 73.8842 228.634 0 319.687 0C410.742 0 484.556 73.8842 484.556 165.029Z" fill="#D3CFC9"/>
<path d="M473.506 165.029C473.506 250.064 404.64 318.999 319.688 318.999C234.738 318.999 165.871 250.064 165.871 165.029C165.871 79.993 234.738 11.0586 319.688 11.0586C404.64 11.0586 473.506 79.993 473.506 165.029Z" fill="#B8B6B1"/>
<path d="M494.886 493.77H142.485V143.745H494.886V493.77Z" fill="#B8B6B1"/>
<path d="M443.297 287.941H194.338V280.021H443.297V287.941Z" fill="#9E9D99"/>
<path d="M443.297 321.202H194.338V313.282H443.297V321.202Z" fill="#9E9D99"/>
<path d="M443.297 354.467H194.338V346.547H443.297V354.467Z" fill="#9E9D99"/>
<path d="M443.297 387.729H194.338V379.809H443.297V387.729Z" fill="#9E9D99"/>
<path d="M465.108 154.806C459.861 78.9715 396.783 19.0701 319.689 19.0701C242.594 19.0701 179.516 78.9715 174.27 154.806H153.621V482.708H483.75V154.806H465.108Z" stroke="#858380" stroke-width="2.82931" stroke-miterlimit="10"/>
<path d="M528.549 538.154H110.085C105.956 538.154 102.609 534.802 102.609 530.671V472.936C102.609 468.803 105.956 465.451 110.085 465.451H528.549C532.678 465.451 536.027 468.803 536.027 472.936V530.671C536.027 534.802 532.678 538.154 528.549 538.154Z" fill="#777673"/>
<path d="M528.549 465.451H110.085C105.956 465.451 102.609 468.803 102.609 472.936V478.382C102.609 474.248 105.956 470.898 110.085 470.898H528.549C532.678 470.898 536.027 474.248 536.027 478.382V472.936C536.027 468.802 532.678 465.451 528.549 465.451Z" fill="#A2A2A1"/>
<path d="M557.025 549H82.6369C78.5074 549 75.1592 545.648 75.1592 541.515V519.865C75.1592 515.731 78.5078 512.382 82.6369 512.382H557.025C561.154 512.382 564.503 515.732 564.503 519.865V541.515C564.503 545.649 561.154 549 557.025 549Z" fill="#575756"/>
<path d="M557.025 512.381H82.6365C78.507 512.381 75.1592 515.733 75.1592 519.866V523.71C75.1592 519.579 78.507 516.227 82.6365 516.227H557.025C561.154 516.227 564.502 519.579 564.502 523.71V519.866C564.502 515.733 561.154 512.381 557.025 512.381Z" fill="#A2A2A1"/>
<path d="M404.552 176.368C404.552 221.103 368.323 257.369 323.63 257.369C278.939 257.369 242.708 221.102 242.708 176.368C242.708 131.633 278.939 95.3665 323.63 95.3665C368.323 95.3665 404.552 131.633 404.552 176.368Z" fill="#858380"/>
<path d="M396.682 176.368C396.682 216.752 363.974 249.491 323.63 249.491C283.286 249.491 250.578 216.752 250.578 176.368C250.578 135.984 283.286 103.244 323.63 103.244C363.974 103.244 396.682 135.984 396.682 176.368Z" fill="#D3CFC9"/>
<path d="M351.925 170.426C351.925 186.068 339.257 198.75 323.629 198.75C308.003 198.75 295.336 186.068 295.336 170.426C295.336 154.785 308.003 142.103 323.629 142.103C339.257 142.103 351.925 154.785 351.925 170.426Z" fill="#B8B6B1"/>
<path d="M323.631 191.347C302.487 191.347 284.62 205.353 278.757 224.595C291.14 234.264 306.709 240.042 323.631 240.042C340.554 240.042 356.12 234.264 368.504 224.595C362.641 205.352 344.774 191.347 323.631 191.347Z" fill="#B8B6B1"/>
</g>
<defs>
<clipPath id="clip0_1386_2155">
<rect width="622" height="549" fill="white"/>
</clipPath>
</defs>
</svg>
