<svg width="20" height="20" viewBox="0 0 20 20" fill="none" xmlns="http://www.w3.org/2000/svg">
<path fill-rule="evenodd" clip-rule="evenodd" d="M6.87647 11.1727C6.78879 11.2291 6.72616 11.2854 6.62596 11.3512C6.51323 11.4263 6.47252 11.4451 6.35666 11.5109L4.64694 12.4221C4.27744 12.6069 3.87349 12.7885 3.50399 12.9951C2.30781 13.6653 1.33709 14.0974 0.66698 15.3938C0.494755 15.7257 0.300611 16.2925 0.209801 16.6557C0.043839 17.3258 0 17.7517 0 18.475C0 19.2234 0.779709 20 1.52497 20H18.3592C19.1295 20 19.881 19.2109 19.881 18.4375C19.881 17.7454 19.834 17.3164 19.6806 16.687C19.5679 16.2267 19.4113 15.8165 19.2046 15.4032C18.6128 14.2132 17.9615 13.9189 16.9594 13.3114C16.4428 12.9983 14.7049 12.1372 14.0755 11.824L12.967 11.1727C13.6715 10.1206 14.041 9.86692 14.6141 8.32629C15.0681 7.11132 15.1558 5.94958 14.993 4.3432C14.8051 2.48943 13.9158 1.05527 12.2092 0.366369C11.7113 0.165962 11.1101 0.0407077 10.4744 0H9.5256C8.45154 0.0688899 7.38062 0.375763 6.61656 0.951934C5.65837 1.68154 5.0321 2.88398 4.88805 4.30249C4.62502 6.92031 5.06028 8.50478 6.41303 10.4995C6.52576 10.6654 6.83263 11.0099 6.87647 11.1727Z" fill="#DB4A2A"/>
</svg>
