<svg width="22" height="31" viewBox="0 0 22 31" fill="none" xmlns="http://www.w3.org/2000/svg">
<g id="Group">
<g id="Group_2">
<path id="Vector" d="M10.9999 0C4.93452 0 0 5.0232 0 11.1976C0 14.6512 1.74676 18.8432 5.19192 23.657C7.7131 27.1799 10.1975 29.6924 10.302 29.7977C10.4942 29.9911 10.747 30.0881 11.0001 30.0881C11.2459 30.0881 11.4918 29.9966 11.6824 29.8129C11.7872 29.712 14.2779 27.3013 16.8038 23.827C20.2518 19.0846 22 14.8354 22 11.1975C21.9999 5.0232 17.0652 0 10.9999 0ZM10.9999 16.0317C8.03461 16.0317 5.6222 13.6193 5.6222 10.654C5.6222 7.68871 8.03467 5.27625 10.9999 5.27625C13.9652 5.27625 16.3777 7.68871 16.3777 10.654C16.3777 13.6193 13.9652 16.0317 10.9999 16.0317Z" fill="#E55738"/>
</g>
</g>
</svg>
