<svg width="15" height="21" viewBox="0 0 15 21" fill="none" xmlns="http://www.w3.org/2000/svg">
<path d="M7.34403 0C3.2945 0 0 3.35371 0 7.47598C0 9.78181 1.16621 12.5805 3.46635 15.7944C5.1496 18.1465 6.80828 19.8239 6.87808 19.8942C7.00638 20.0234 7.17517 20.0881 7.34415 20.0881C7.50823 20.0881 7.67243 20.027 7.79971 19.9044C7.86966 19.837 9.53255 18.2275 11.219 15.908C13.521 12.7417 14.6881 9.90477 14.6881 7.47594C14.6881 3.35371 11.3935 0 7.34403 0ZM7.34403 10.7035C5.36425 10.7035 3.75363 9.0928 3.75363 7.11306C3.75363 5.13331 5.36429 3.52265 7.34403 3.52265C9.32378 3.52265 10.9344 5.13331 10.9344 7.11306C10.9344 9.0928 9.32374 10.7035 7.34403 10.7035Z" fill="#E55738"/>
</svg>
