<svg width="32" height="32" viewBox="0 0 32 32" fill="none" xmlns="http://www.w3.org/2000/svg">
<path fill-rule="evenodd" clip-rule="evenodd" d="M10.105 2.91465C12.5283 2.80466 20.5007 2.77716 22.7313 2.99714C24.8793 3.20336 26.091 3.90453 27.0686 5.07313C28.0875 6.28299 28.3216 8.11151 28.4042 10.1325C28.5006 12.566 28.5419 20.485 28.3216 22.6985C28.1013 24.857 27.3715 26.0668 26.2149 27.0155C24.9481 28.0603 23.227 28.2803 21.2029 28.3628C18.8071 28.459 10.7797 28.4865 8.60414 28.2666C6.40107 28.0466 5.24446 27.3592 4.26685 26.1906C3.19286 24.912 3.01386 23.1659 2.91748 21.1312C2.80733 18.8627 2.79356 10.6962 3.00009 8.57896C3.20663 6.53046 3.92263 5.19687 5.07924 4.26198C6.37354 3.20336 8.06714 3.01088 10.105 2.91465ZM0.0672639 21.0487C0.191186 23.6196 0.383954 25.4207 1.58187 27.3042C2.58702 28.899 4.19801 30.0538 6.05684 30.6313C8.14976 31.2774 10.9587 31.2225 13.2719 31.2225C15.8329 31.2225 18.4766 31.2774 21.0239 31.1812C23.6814 31.0712 25.43 30.8787 27.344 29.6689C28.7759 28.7478 30.0289 27.2767 30.6761 25.2007C31.3645 23.001 31.2269 20.3475 31.2269 17.9416C31.2269 15.3569 31.2269 12.7722 31.2269 10.1875C31.2131 7.80905 30.8413 5.59557 29.6985 3.90453C29.1477 3.07963 28.5694 2.4747 27.8121 1.89727C27.0961 1.34734 26.2287 0.921138 25.2097 0.591178C23.2132 -0.0274967 20.1978 0.0137483 17.9672 0.0137483C15.4061 0.0137483 12.7624 -0.041245 10.2151 0.0687416C7.66784 0.16498 5.78146 0.398702 3.92263 1.59481C-0.139274 4.19324 0.0397256 8.86767 0.0259564 13.3084C0.0121873 15.8381 -0.0428893 18.519 0.0672639 21.0487Z" fill="#E55738"/>
<path fill-rule="evenodd" clip-rule="evenodd" d="M15.0606 10.5956C18.0325 10.2209 20.3485 12.4824 20.643 15.0384C21.0045 18.0092 18.7688 20.3376 16.1985 20.6454C13.2265 20.9933 10.8838 18.7719 10.5892 16.1892C10.2412 13.1783 12.4635 10.9168 15.0606 10.5956ZM7.83148 16.0822C8.126 20.2038 11.5531 23.6697 16.0244 23.4155C20.1879 23.1746 23.6819 19.6685 23.4142 15.199C23.1732 11.0104 19.6256 7.54452 15.1409 7.82554C11.0444 8.09318 7.4968 11.626 7.83148 16.0822Z" fill="#E55738"/>
<path fill-rule="evenodd" clip-rule="evenodd" d="M23.084 6.29994C22.3364 6.48231 21.6924 7.22322 21.9109 8.1693C22.0949 8.91021 22.831 9.53713 23.7856 9.33196C25.7869 8.91021 25.1198 5.8098 23.084 6.29994Z" fill="#E55738"/>
</svg>
