<svg width="28" height="21" viewBox="0 0 28 21" fill="none" xmlns="http://www.w3.org/2000/svg">
<rect width="28" height="20.44" rx="6" fill="#E55738"/>
<path d="M4.38893 4.57397C7.51174 7.617 10.6345 10.6597 13.7574 13.7028C14.3395 14.2699 15.2329 13.3785 14.6499 12.8102C11.5271 9.76747 8.4043 6.72444 5.28149 3.6817C4.69936 3.11431 3.80593 4.006 4.38893 4.57397Z" fill="white"/>
<path d="M14.6496 13.7027C17.7724 10.66 20.8952 7.61696 24.018 4.57422C24.6007 4.00625 23.7079 3.11427 23.1254 3.68166C20.0026 6.7244 16.8798 9.76744 13.757 12.8102C13.1743 13.3781 14.0672 14.2701 14.6496 13.7027Z" fill="white"/>
<path d="M23.984 15.8569C21.9061 13.8862 19.8278 11.9158 17.7499 9.94509C17.1606 9.38637 16.2666 10.2772 16.8574 10.8377C18.9353 12.8083 21.0135 14.7787 23.0914 16.7494C23.6808 17.3081 24.5748 16.417 23.984 15.8569Z" fill="white"/>
<path d="M5.37094 16.749C7.44886 14.7783 9.52707 12.8079 11.605 10.8372C12.1955 10.2771 11.3021 9.38568 10.7124 9.94469C8.63451 11.9154 6.5563 13.8858 4.47838 15.8565C3.88786 16.4166 4.78129 17.3083 5.37094 16.749Z" fill="white"/>
</svg>
