<svg width="104" height="20" viewBox="0 0 104 20" fill="none" xmlns="http://www.w3.org/2000/svg">
<path d="M40.7808 5.14988H43.7054V13.1815H48.6388V15.5037H40.7808V5.14988ZM51.983 5.14988H54.9076V15.5037H51.983V5.14988ZM62.8159 15.7108C61.9789 15.7108 61.1665 15.6073 60.3787 15.4002C59.591 15.1931 58.9509 14.917 58.4586 14.5719L59.4187 12.4123C59.8815 12.718 60.4182 12.9645 61.0287 13.1519C61.6392 13.3393 62.2399 13.4329 62.8307 13.4329C63.9533 13.4329 64.5145 13.1519 64.5145 12.5899C64.5145 12.294 64.3545 12.0747 64.0345 11.9317C63.7145 11.7887 63.2 11.6383 62.491 11.4805C61.713 11.3129 61.0631 11.133 60.5412 10.9407C60.0193 10.7484 59.5713 10.4402 59.1971 10.0162C58.8229 9.59219 58.6358 9.02026 58.6358 8.30042C58.6358 7.66936 58.8081 7.0999 59.1528 6.59208C59.4974 6.08422 60.0119 5.68237 60.6963 5.38658C61.3807 5.09079 62.2201 4.94287 63.2147 4.94287C63.8941 4.94287 64.5637 5.01928 65.2235 5.17213C65.8832 5.32494 66.4642 5.5493 66.9665 5.84509L66.0654 8.01939C65.0807 7.4869 64.1256 7.22067 63.2 7.22067C62.619 7.22067 62.1956 7.30695 61.9297 7.47953C61.6638 7.65208 61.5309 7.87641 61.5309 8.1525C61.5309 8.42859 61.6884 8.63569 62.0036 8.77373C62.3187 8.91178 62.8258 9.05476 63.525 9.20268C64.3127 9.37033 64.9651 9.55024 65.4821 9.74257C65.999 9.93486 66.4471 10.2405 66.8262 10.6596C67.2053 11.0787 67.3949 11.6482 67.3949 12.368C67.3949 12.9892 67.2226 13.5513 66.8779 14.0542C66.5333 14.5571 66.0163 14.9589 65.327 15.2597C64.6377 15.5604 63.8007 15.7108 62.816 15.7108H62.8159ZM72.9842 7.47209H69.8085V5.14988H79.0697V7.47209H75.9088V15.5037H72.9842V7.47209ZM90.6559 13.2407V15.5037H82.3548V5.14988H90.4639V7.41292H85.2499V9.15831H89.8435V11.3474H85.2499V13.2407H90.6559H90.6559ZM98.9926 12.7526H97.3974V15.5037H94.4727V5.14988H99.1994C100.135 5.14988 100.947 5.3052 101.637 5.61584C102.326 5.92647 102.858 6.37018 103.232 6.94704C103.606 7.52391 103.793 8.20185 103.793 8.98082C103.793 9.73024 103.618 10.3835 103.269 10.9407C102.919 11.4978 102.419 11.9341 101.769 12.2497L104 15.5037H100.868L98.9926 12.7526L98.9926 12.7526ZM100.839 8.98082C100.839 8.49764 100.686 8.12289 100.381 7.85667C100.076 7.5904 99.6228 7.45733 99.0221 7.45733H97.3974V10.4895H99.0221C99.6228 10.4895 100.076 10.3588 100.381 10.0975C100.686 9.83621 100.839 9.46397 100.839 8.98082Z" fill="white"/>
<path fill-rule="evenodd" clip-rule="evenodd" d="M2.17915 0H34.6051C35.8035 0 36.7842 0.982024 36.7842 2.18218V19.9967H0V2.18218C0 0.981984 0.980701 0 2.17911 0L2.17915 0Z" fill="white"/>
<path d="M8.64527 12.7529H7.13916V15.3504H4.37793V5.57495H8.84052C9.72372 5.57495 10.4908 5.72157 11.1416 6.01482C11.7924 6.3081 12.2944 6.72706 12.6477 7.27168C13.001 7.81631 13.1776 8.45635 13.1776 9.19185C13.1776 9.89943 13.0126 10.5162 12.6825 11.0422C12.3525 11.5682 11.8807 11.9802 11.2671 12.2781L13.3729 15.3504H10.4164L8.64527 12.7529ZM10.3885 9.19185C10.3885 8.73564 10.2444 8.38188 9.95617 8.13054C9.66798 7.87916 9.24028 7.75349 8.67318 7.75349H7.13916V10.6163H8.67318C9.24028 10.6163 9.66798 10.493 9.95617 10.2463C10.2444 9.99954 10.3885 9.64809 10.3885 9.19189V9.19185Z" fill="black"/>
<path d="M28.9621 5.57499C29.8453 5.57499 30.6123 5.72161 31.2632 6.01486C31.9139 6.30814 32.416 6.7271 32.7693 7.27172C33.1226 7.81635 33.2992 8.45639 33.2992 9.19189C33.2992 9.92738 33.1226 10.5651 32.7693 11.1051C32.416 11.6451 31.9139 12.0617 31.2632 12.355C30.6123 12.6482 29.8453 12.7948 28.9621 12.7948H27.2607V15.3504H24.4995V5.57495H28.9621V5.57499ZM28.7948 10.6164C29.3619 10.6164 29.7896 10.493 30.0778 10.2463C30.3659 9.99958 30.5101 9.64813 30.5101 9.19193C30.5101 8.73572 30.3659 8.38197 30.0778 8.13063C29.7896 7.87924 29.3619 7.75357 28.7948 7.75357H27.2607V10.6164H28.7948V10.6164Z" fill="black"/>
<path fill-rule="evenodd" clip-rule="evenodd" d="M17.3374 20.0003H20.0989V9.86068C20.0989 9.10007 19.4777 8.47803 18.718 8.47803C17.9586 8.47803 17.3374 9.10007 17.3374 9.86068V20.0003H17.3374Z" fill="black"/>
<path fill-rule="evenodd" clip-rule="evenodd" d="M18.5238 7.76567C18.1251 7.21441 17.9083 6.34726 18.4662 6.36947C18.9668 6.38969 18.8235 7.47668 18.9 7.75115C21.622 6.66522 19.2266 3.1388 18.3184 2.88281C18.5843 4.07949 17.6311 4.29208 17.3314 5.39844C17.2664 5.63858 17.2555 5.90262 17.2929 6.17212C17.3852 6.83704 17.7497 7.64069 18.5237 7.76567H18.5238Z" fill="black"/>
</svg>
