<svg width="21" height="21" viewBox="0 0 21 21" fill="none" xmlns="http://www.w3.org/2000/svg">
<path d="M20.6865 19.1393L15.7206 14.1733C17.0917 12.4086 17.7386 10.1876 17.5296 7.96256C17.3206 5.73756 16.2714 3.67587 14.5956 2.19732C12.9199 0.718767 10.7436 -0.0654755 8.50987 0.00428478C6.27616 0.074045 4.15303 0.992563 2.5728 2.5728C0.992559 4.15305 0.0740448 6.27618 0.00428477 8.50989C-0.0654753 10.7436 0.718765 12.9199 2.19731 14.5957C3.67586 16.2715 5.73754 17.3207 7.96254 17.5297C10.1875 17.7387 12.4085 17.0918 14.1733 15.7207L19.1393 20.6865C19.3451 20.8886 19.6224 21.0013 19.9108 21C20.1993 20.9987 20.4756 20.8835 20.6795 20.6795C20.8835 20.4756 20.9987 20.1993 21 19.9108C21.0013 19.6224 20.8886 19.3451 20.6865 19.1393ZM2.24883 8.8142C2.24883 7.51568 2.63389 6.24632 3.3553 5.16664C4.07672 4.08697 5.10209 3.24546 6.30177 2.74854C7.50144 2.25162 8.82152 2.1216 10.0951 2.37493C11.3686 2.62826 12.5385 3.25355 13.4567 4.17174C14.3749 5.08993 15.0002 6.25978 15.2535 7.53335C15.5068 8.80691 15.3768 10.127 14.8799 11.3267C14.383 12.5264 13.5415 13.5517 12.4618 14.2731C11.3821 14.9946 10.1128 15.3796 8.81424 15.3796C7.07357 15.3777 5.40474 14.6854 4.1739 13.4546C2.94306 12.2237 2.25074 10.5549 2.24883 8.8142Z" fill="white"/>
</svg>
