<svg xmlns="http://www.w3.org/2000/svg" width="13" height="20" viewBox="0 0 13 20" fill="none">
  <path d="M6.77939 19.6154L6.78032 19.6145L11.8823 14.4879C12.2645 14.1038 12.263 13.4826 11.8789 13.1003C11.4949 12.718 10.8736 12.7195 10.4914 13.1036L7.06603 16.5456L7.06603 0.981143C7.06603 0.439258 6.62677 0 6.08488 0C5.543 0 5.10374 0.439258 5.10374 0.981143L5.10374 16.5456L1.67837 13.1036C1.29612 12.7195 0.674907 12.7181 0.290838 13.1003C-0.0933285 13.4826 -0.0946531 14.1039 0.287502 14.4879L5.38945 19.6146L5.39038 19.6155C5.77391 19.9997 6.39713 19.9985 6.77939 19.6154Z" fill="#E55738"/>
</svg>