<svg width="25" height="20" viewBox="0 0 25 20" fill="none" xmlns="http://www.w3.org/2000/svg">
<path d="M23.4477 0C23.7745 0 24.1013 0.185922 24.4281 0.557767C24.8094 0.876494 25 1.16866 25 1.43426C25 1.69987 24.5915 2.09827 23.7745 2.62948C19.5806 5.60425 17.4837 8.18061 17.4837 10.3586C17.4837 11.4741 18.1373 12.2709 19.4444 12.749C21.1874 13.3865 22.0588 14.502 22.0588 16.0956C22.0588 17.1049 21.732 18.008 21.0784 18.8048C20.4248 19.6016 19.39 20 17.9739 20C16.6122 20 15.3867 19.4422 14.2974 18.3267C13.2081 17.158 12.6634 15.6707 12.6634 13.8645C12.6634 10.9429 14.2429 7.91501 17.402 4.78088C20.6155 1.59363 22.6307 0 23.4477 0ZM10.7843 0C11.1111 0 11.4379 0.185922 11.7647 0.557767C12.146 0.876494 12.3366 1.16866 12.3366 1.43426C12.3366 1.69987 11.9281 2.09827 11.1111 2.62948C6.91721 5.60425 4.82026 8.18061 4.82026 10.3586C4.82026 11.4741 5.47385 12.2709 6.78105 12.749C8.52396 13.3865 9.39542 14.502 9.39542 16.0956C9.39542 17.1049 9.06862 18.008 8.41503 18.8048C7.76144 19.6016 6.72658 20 5.31046 20C3.9488 20 2.72331 19.4422 1.63399 18.3267C0.544662 17.158 0 15.6707 0 13.8645C0 10.9429 1.57952 7.91501 4.73856 4.78088C7.95207 1.59363 9.96732 0 10.7843 0Z" fill="#E55738"/>
</svg>
