<svg width="31" height="26" viewBox="0 0 31 26" fill="none" xmlns="http://www.w3.org/2000/svg">
<path d="M9.74916 26C21.4479 26 27.8454 15.9981 27.8454 7.32474C27.8454 7.04069 27.8398 6.75791 27.8274 6.47633C29.0693 5.54986 30.1487 4.39367 31 3.07751C29.8604 3.60032 28.634 3.95222 27.3476 4.11089C28.6607 3.29833 29.6688 2.01288 30.1444 0.480517C28.9155 1.23231 27.5547 1.77875 26.1057 2.07375C24.9451 0.797962 23.2928 0 21.4632 0C17.9508 0 15.1026 2.93945 15.1026 6.56274C15.1026 7.07783 15.1585 7.57874 15.2676 8.05937C9.98155 7.78486 5.29427 5.17305 2.15728 1.20161C1.61104 2.17155 1.29605 3.29833 1.29605 4.50059C1.29605 6.77777 2.4189 8.78808 4.12638 9.96414C3.0829 9.93086 2.10267 9.63521 1.24591 9.14321C1.24498 9.1708 1.24497 9.19764 1.24497 9.22705C1.24497 12.4058 3.43731 15.0598 6.34753 15.6612C5.81315 15.8115 5.25079 15.8921 4.67043 15.8921C4.2613 15.8921 3.86256 15.8506 3.47507 15.7738C4.2848 18.3817 6.63277 20.2795 9.41649 20.3326C7.23965 22.0934 4.49744 23.1421 1.51711 23.1421C1.00436 23.1421 0.497866 23.112 0 23.0512C2.81483 24.9131 6.15685 26 9.74916 26Z" fill="#E55738"/>
</svg>
