<svg width="250" height="250" viewBox="0 0 250 250" fill="none" xmlns="http://www.w3.org/2000/svg">
<rect width="250" height="250" rx="30" fill="#FFF8F6"/>
<path d="M79 137.179H83.301V148.991H90.5561V152.406H79V137.179ZM95.4741 137.179H99.7751V152.406H95.4741V137.179ZM111.405 152.71C110.174 152.71 108.98 152.558 107.821 152.254C106.663 151.949 105.721 151.543 104.997 151.036L106.409 147.86C107.09 148.309 107.879 148.672 108.777 148.947C109.675 149.223 110.558 149.361 111.427 149.361C113.078 149.361 113.903 148.947 113.903 148.121C113.903 147.686 113.668 147.363 113.197 147.153C112.727 146.943 111.97 146.721 110.927 146.489C109.783 146.243 108.828 145.978 108.06 145.695C107.293 145.413 106.634 144.959 106.083 144.336C105.533 143.712 105.258 142.871 105.258 141.813C105.258 140.885 105.511 140.047 106.018 139.3C106.525 138.553 107.282 137.963 108.288 137.528C109.295 137.093 110.529 136.875 111.992 136.875C112.991 136.875 113.976 136.987 114.946 137.212C115.916 137.437 116.77 137.767 117.509 138.202L116.184 141.399C114.736 140.616 113.331 140.225 111.97 140.225C111.116 140.225 110.493 140.352 110.102 140.605C109.711 140.859 109.515 141.189 109.515 141.595C109.515 142.001 109.747 142.306 110.211 142.509C110.674 142.712 111.42 142.922 112.448 143.14C113.606 143.386 114.566 143.651 115.326 143.934C116.086 144.216 116.745 144.666 117.303 145.282C117.86 145.898 118.139 146.736 118.139 147.794C118.139 148.708 117.886 149.535 117.379 150.274C116.872 151.014 116.112 151.605 115.098 152.047C114.084 152.489 112.853 152.71 111.405 152.71H111.405ZM126.359 140.595H121.689V137.179H135.308V140.595H130.66V152.406H126.359V140.595ZM152.347 149.078V152.406H140.139V137.179H152.065V140.507H144.397V143.074H151.152V146.294H144.397V149.078H152.347H152.347ZM164.607 148.36H162.261V152.406H157.96V137.179H164.911C166.287 137.179 167.482 137.408 168.495 137.865C169.509 138.321 170.291 138.974 170.841 139.822C171.392 140.671 171.667 141.668 171.667 142.813C171.667 143.915 171.41 144.876 170.896 145.695C170.382 146.515 169.647 147.156 168.691 147.62L171.971 152.406H167.366L164.607 148.36L164.607 148.36ZM167.322 142.813C167.322 142.103 167.098 141.552 166.649 141.16C166.2 140.768 165.534 140.573 164.651 140.573H162.261V145.032H164.651C165.534 145.032 166.2 144.84 166.649 144.456C167.098 144.071 167.322 143.524 167.322 142.813Z" fill="#F5BFB4"/>
<path fill-rule="evenodd" clip-rule="evenodd" d="M101.326 97H149.012C150.774 97 152.216 98.4442 152.216 100.209V120.407C152.216 123.721 149.53 126.407 146.216 126.407H104.121C100.807 126.407 98.1211 123.721 98.1211 120.407V100.209C98.1211 98.4441 99.5634 97 101.326 97Z" fill="#F5BFB4"/>
<path d="M110.837 115.751H108.622V119.571H104.562V105.195H111.124C112.423 105.195 113.551 105.411 114.508 105.842C115.465 106.273 116.204 106.89 116.723 107.691C117.243 108.491 117.502 109.433 117.502 110.514C117.502 111.555 117.26 112.462 116.774 113.236C116.289 114.009 115.595 114.615 114.693 115.053L117.79 119.571H113.442L110.837 115.751ZM113.401 110.514C113.401 109.843 113.189 109.323 112.765 108.954C112.341 108.584 111.712 108.399 110.878 108.399H108.622V112.609H110.878C111.712 112.609 112.341 112.428 112.765 112.065C113.189 111.702 113.401 111.185 113.401 110.514V110.514Z" fill="#FFF8F6"/>
<path d="M140.709 105.195C142.008 105.195 143.136 105.411 144.093 105.842C145.05 106.274 145.789 106.89 146.308 107.691C146.828 108.492 147.087 109.433 147.087 110.514C147.087 111.596 146.828 112.534 146.308 113.328C145.789 114.122 145.05 114.735 144.093 115.166C143.136 115.597 142.008 115.813 140.709 115.813H138.207V119.571H134.146V105.195H140.709V105.195ZM140.463 112.609C141.297 112.609 141.926 112.428 142.35 112.065C142.774 111.702 142.986 111.185 142.986 110.514C142.986 109.844 142.774 109.323 142.35 108.954C141.926 108.584 141.297 108.399 140.463 108.399H138.207V112.609H140.463V112.609Z" fill="#FFF8F6"/>
<path fill-rule="evenodd" clip-rule="evenodd" d="M123.614 126.414H127.675V111.502C127.675 110.384 126.762 109.469 125.645 109.469C124.528 109.469 123.614 110.384 123.614 111.502V126.414H123.614Z" fill="#FFF8F6"/>
<path fill-rule="evenodd" clip-rule="evenodd" d="M125.362 108.423C124.776 107.612 124.457 106.337 125.277 106.37C126.014 106.399 125.803 107.998 125.915 108.402C129.919 106.805 126.396 101.619 125.06 101.242C125.451 103.002 124.049 103.315 123.609 104.942C123.513 105.295 123.497 105.683 123.552 106.079C123.688 107.057 124.224 108.239 125.362 108.423H125.362Z" fill="#FFF8F6"/>
<path d="M224.205 193.961C226.854 193.961 229 196.107 229 198.756V211.322V221.979C229 224.803 226.71 227.092 223.887 227.092H184.113C181.29 227.092 179 224.803 179 221.979V211.312V198.756C179 196.107 181.146 193.961 183.795 193.961H193.384L193.836 192.051C194.524 189.094 197.162 187 200.201 187H207.809C210.848 187 213.487 189.094 214.175 192.051L214.616 193.961H224.205Z" fill="#E55738"/>
<path d="M204.799 201.428L204.8 201.429L210.671 207.328C211.111 207.77 211.109 208.485 210.667 208.925C210.225 209.365 209.511 209.363 209.071 208.921L205.129 204.96V217.871C205.129 218.495 204.624 219 204 219C203.376 219 202.871 218.495 202.871 217.871V204.961L198.929 208.921C198.489 209.363 197.775 209.365 197.333 208.925C196.891 208.485 196.889 207.77 197.329 207.328L203.2 201.429L203.201 201.428C203.642 200.986 204.359 200.987 204.799 201.428Z" fill="white"/>
</svg>
