<svg xmlns="http://www.w3.org/2000/svg" width="8" height="14" viewBox="0 0 8 14" fill="none">
  <path d="M4.45826 12.8926L4.45887 12.892L7.81221 9.5224C8.06343 9.26997 8.06249 8.86167 7.81002 8.61039C7.55759 8.35915 7.14928 8.36012 6.89804 8.61255L4.64666 10.8749V0.644874C4.64666 0.28871 4.35795 0 4.00178 0C3.64562 0 3.35691 0.28871 3.35691 0.644874L3.35691 10.8749L1.10553 8.61258C0.854284 8.36015 0.445982 8.35918 0.193546 8.61042C-0.0589542 8.8617 -0.0598249 9.27003 0.191353 9.52244L3.5447 12.892L3.54531 12.8926C3.79739 13.1452 4.20702 13.1444 4.45826 12.8926Z" fill="white"/>
</svg>