<svg width="24" height="24" viewBox="0 0 24 24" fill="none" xmlns="http://www.w3.org/2000/svg">
<path d="M12 23C18.0751 23 23 18.0751 23 12C23 5.92487 18.0751 1 12 1C5.92487 1 1 5.92487 1 12C1 18.0751 5.92487 23 12 23Z" fill="#F1D33D"/>
<path d="M12 23C14.9174 23 17.7153 21.8411 19.7782 19.7782C21.8411 17.7153 23 14.9174 23 12H1C1 14.9174 2.15893 17.7153 4.22183 19.7782C6.28473 21.8411 9.08262 23 12 23Z" fill="#E7A324"/>
<path d="M11.9978 21.9216C9.3596 21.9211 6.82846 20.878 4.95585 19.0197C3.08323 17.1613 2.0209 14.6382 2.00029 12V12.0835C1.98005 14.7569 3.02147 17.3289 4.8959 19.2351C6.77033 21.1413 9.32457 22.2257 11.9978 22.2504C14.6717 22.2269 17.2269 21.1431 19.1022 19.237C20.9775 17.331 22.0197 14.7585 21.9997 12.0846C21.9997 12.0564 21.9997 12.0293 21.9997 12.0011C21.9788 14.6398 20.9158 17.1633 19.0422 19.0216C17.1687 20.8798 14.6366 21.9222 11.9978 21.9216Z" fill="#D38E26"/>
<path d="M12 22.0022C17.5228 22.0022 22 17.525 22 12.0022C22 6.47935 17.5228 2.0022 12 2.0022C6.47715 2.0022 2 6.47935 2 12.0022C2 17.525 6.47715 22.0022 12 22.0022Z" fill="url(#paint0_linear_9341_548)"/>
<path d="M12 20.5C16.6944 20.5 20.5 16.6944 20.5 12C20.5 7.30558 16.6944 3.5 12 3.5C7.30558 3.5 3.5 7.30558 3.5 12C3.5 16.6944 7.30558 20.5 12 20.5Z" fill="#F9EE60"/>
<path d="M12 3.5C9.74566 3.5 7.58365 4.39553 5.98959 5.98959C4.39553 7.58365 3.5 9.74566 3.5 12H20.5C20.5 9.74566 19.6045 7.58365 18.0104 5.98959C16.4163 4.39553 14.2543 3.5 12 3.5Z" fill="#E3A22C"/>
<path d="M12 19.5C16.1421 19.5 19.5 16.1421 19.5 12C19.5 7.85786 16.1421 4.5 12 4.5C7.85786 4.5 4.5 7.85786 4.5 12C4.5 16.1421 7.85786 19.5 12 19.5Z" fill="url(#paint1_linear_9341_548)"/>
<path d="M10.7279 11.5786C10.7279 12.2786 10.4123 12.7429 9.83992 12.9643L11.1021 15H9.84726L8.79054 13.15H8.1301V15H7V10H8.81256C10.0454 10 10.7279 10.5286 10.7279 11.5786ZM9.58308 11.5786C9.58308 11.1643 9.33358 10.9071 8.76853 10.9071H8.1301V12.25H8.76853C9.33358 12.25 9.58308 11.9929 9.58308 11.5786Z" fill="#D79527"/>
<path d="M11.6738 10H12.8039V15H11.6738V10Z" fill="#D79527"/>
<path d="M17.5 11.6C17.5 12.65 16.8175 13.1929 15.5847 13.1929H14.9022V15H13.7721V10H15.5847C16.8175 10 17.5 10.55 17.5 11.6ZM16.3552 11.6C16.3552 11.1643 16.1057 10.9071 15.5407 10.9071H14.9022V12.2929H15.5407C16.1057 12.2929 16.3552 12.0357 16.3552 11.6Z" fill="#D79527"/>
<path d="M10.7279 11.0786C10.7279 11.7786 10.4123 12.2429 9.83992 12.4643L11.1021 14.5H9.84726L8.79054 12.65H8.1301V14.5H7V9.5H8.81256C10.0454 9.5 10.7279 10.0286 10.7279 11.0786ZM9.58308 11.0786C9.58308 10.6643 9.33358 10.4071 8.76853 10.4071H8.1301V11.75H8.76853C9.33358 11.75 9.58308 11.4929 9.58308 11.0786Z" fill="#F9EA59"/>
<path d="M11.6738 9.5H12.8039V14.5H11.6738V9.5Z" fill="#F9EA59"/>
<path d="M17.5 11.1C17.5 12.15 16.8175 12.6929 15.5847 12.6929H14.9022V14.5H13.7721V9.5H15.5847C16.8175 9.5 17.5 10.05 17.5 11.1ZM16.3552 11.1C16.3552 10.6643 16.1057 10.4071 15.5407 10.4071H14.9022V11.7929H15.5407C16.1057 11.7929 16.3552 11.5357 16.3552 11.1Z" fill="#F9EA59"/>
<defs>
<linearGradient id="paint0_linear_9341_548" x1="12" y1="1.91758" x2="12" y2="22.0315" gradientUnits="userSpaceOnUse">
<stop stop-color="#FAEE5E"/>
<stop offset="1" stop-color="#EDC12D"/>
</linearGradient>
<linearGradient id="paint1_linear_9341_548" x1="12" y1="4.42071" x2="12" y2="19.4486" gradientUnits="userSpaceOnUse">
<stop stop-color="#EFC938"/>
<stop offset="1" stop-color="#F1B62E"/>
</linearGradient>
</defs>
</svg>
