<svg width="29" height="19" viewBox="0 0 29 19" fill="none" xmlns="http://www.w3.org/2000/svg">
<path d="M25.7588 0.853027H2.8715C1.46036 0.853027 0.316406 2.17566 0.316406 3.80721V15.8988C0.316406 17.5303 1.46036 18.853 2.8715 18.853H25.7588C27.1699 18.853 28.3139 17.5303 28.3139 15.8988V3.80721C28.3139 2.17566 27.1699 0.853027 25.7588 0.853027Z" fill="#F0F0F0"/>
<path fill-rule="evenodd" clip-rule="evenodd" d="M15.6002 0.853027H13.0301V8.36727H0.316406V11.3388H13.0301V18.853H15.6002V11.3388H28.3139V8.36727H15.6002V0.853027Z" fill="#D80027"/>
<path fill-rule="evenodd" clip-rule="evenodd" d="M11.9638 18.8524V12.571L2.62073 18.8381C2.7033 18.8475 2.78689 18.8523 2.8715 18.8524H11.9638ZM6.31136 12.571L0.379619 16.5499C0.337563 16.3361 0.31636 16.1175 0.316406 15.8982V12.571H6.31136Z" fill="#0052B4"/>
<path fill-rule="evenodd" clip-rule="evenodd" d="M8.43308 12.571L0.816406 17.6554C1.10295 18.101 1.49147 18.4452 1.93816 18.6492L11.0437 12.571H8.43308Z" fill="#D80027"/>
<path fill-rule="evenodd" clip-rule="evenodd" d="M11.9638 0.853027V7.13441L2.62073 0.867379C2.7033 0.857938 2.78689 0.853154 2.8715 0.853027H11.9638ZM6.31136 7.13441L0.379619 3.15557C0.337563 3.36937 0.31636 3.58795 0.316406 3.80721V7.13441H6.31136Z" fill="#0052B4"/>
<path fill-rule="evenodd" clip-rule="evenodd" d="M8.43308 7.13434L0.816406 2.04996C1.10297 1.60436 1.49148 1.26016 1.93816 1.05615L11.0437 7.13434H8.43308Z" fill="#D80027"/>
<path fill-rule="evenodd" clip-rule="evenodd" d="M16.668 18.8524V12.571L26.011 18.8381C25.9285 18.8475 25.8449 18.8523 25.7603 18.8524H16.668ZM22.3204 12.571L28.2521 16.5499C28.2942 16.3361 28.3154 16.1175 28.3153 15.8982V12.571H22.3204Z" fill="#0052B4"/>
<path fill-rule="evenodd" clip-rule="evenodd" d="M20.2004 12.571L27.8171 17.6554C27.5306 18.101 27.1421 18.4452 26.6954 18.6492L17.5898 12.571H20.2004Z" fill="#D80027"/>
<path fill-rule="evenodd" clip-rule="evenodd" d="M16.668 0.853027V7.13441L26.011 0.867379C25.9285 0.857938 25.8449 0.853154 25.7603 0.853027H16.668ZM22.3204 7.13441L28.2521 3.15557C28.2942 3.36937 28.3154 3.58795 28.3153 3.80721V7.13441H22.3204Z" fill="#0052B4"/>
<path fill-rule="evenodd" clip-rule="evenodd" d="M20.2004 7.13434L27.8171 2.04996C27.5306 1.60436 27.142 1.26016 26.6954 1.05615L17.5898 7.13434H20.2004Z" fill="#D80027"/>
</svg>
