<svg width="280" height="54" viewBox="0 0 280 54" fill="none" xmlns="http://www.w3.org/2000/svg">
<path d="M109.793 13.864H117.667V35.4878H130.949V41.74H109.793V13.864ZM139.953 13.864H147.827V41.74H139.953V13.864ZM169.119 42.2976C166.866 42.2976 164.678 42.0188 162.557 41.4612C160.437 40.9037 158.713 40.1603 157.388 39.2312L159.973 33.417C161.219 34.24 162.664 34.9037 164.307 35.4082C165.951 35.9126 167.568 36.1647 169.159 36.1647C172.181 36.1647 173.692 35.4082 173.692 33.895C173.692 33.0985 173.262 32.5078 172.4 32.1229C171.538 31.7379 170.153 31.333 168.244 30.9082C166.15 30.4569 164.4 29.9725 162.995 29.4548C161.59 28.9371 160.383 28.1074 159.376 26.9658C158.369 25.8242 157.865 24.2844 157.865 22.3463C157.865 20.6473 158.329 19.1141 159.257 17.7469C160.185 16.3795 161.57 15.2976 163.412 14.5013C165.255 13.7049 167.515 13.3066 170.193 13.3066C172.022 13.3066 173.825 13.5124 175.601 13.9239C177.377 14.3353 178.942 14.9394 180.294 15.7357L177.868 21.5897C175.217 20.156 172.645 19.4393 170.153 19.4393C168.589 19.4393 167.449 19.6715 166.733 20.1362C166.017 20.6008 165.659 21.2047 165.659 21.9481C165.659 22.6914 166.084 23.249 166.932 23.6206C167.78 23.9923 169.146 24.3773 171.028 24.7755C173.149 25.2269 174.905 25.7113 176.297 26.2291C177.689 26.7468 178.895 27.5697 179.916 28.6981C180.937 29.8263 181.447 31.3596 181.447 33.2976C181.447 34.9701 180.983 36.4835 180.055 37.8374C179.127 39.1914 177.736 40.2733 175.88 41.083C174.024 41.8927 171.771 42.2976 169.119 42.2976H169.119ZM196.496 20.1162H187.946V13.864H212.88V20.1162H204.37V41.74H196.496V20.1162ZM244.074 35.6472V41.74H221.724V13.864H243.557V19.9569H229.519V24.656H241.887V30.5498H229.519V35.6472H244.074H244.074ZM266.519 34.333H262.224V41.74H254.35V13.864H267.076C269.595 13.864 271.782 14.2822 273.638 15.1185C275.493 15.9548 276.925 17.1494 277.932 18.7026C278.94 20.2557 279.444 22.0809 279.444 24.1782C279.444 26.1959 278.973 27.9547 278.032 29.4548C277.091 30.9547 275.745 32.1295 273.995 32.979L280 41.7401H271.57L266.519 34.3331L266.519 34.333ZM271.49 24.1782C271.49 22.8773 271.079 21.8683 270.257 21.1516C269.435 20.4347 268.216 20.0764 266.599 20.0764H262.224V28.24H266.599C268.216 28.24 269.435 27.8883 270.257 27.1848C271.079 26.4812 271.49 25.479 271.49 24.1782Z" fill="#fff"/>
<path fill-rule="evenodd" clip-rule="evenodd" d="M5.86702 0H93.1687C96.3953 0 99.0356 2.64395 99.0356 5.87518V47.8379C99.0356 51.1516 96.3493 53.8379 93.0356 53.8379H6C2.68629 53.8379 0 51.1516 0 47.8379V5.87518C0 2.64384 2.64049 0 5.86702 0Z" fill="url(#paint0_linear_212_1061)"/>
<path d="M23.2763 34.3343H19.2213V41.3277H11.7871V15.0088H23.8019C26.1798 15.0088 28.2449 15.4035 29.9972 16.1931C31.7493 16.9827 33.1009 18.1107 34.0521 19.577C35.0033 21.0433 35.4789 22.7665 35.4789 24.7467C35.4789 26.6518 35.0347 28.3124 34.146 29.7285C33.2574 31.1447 31.9871 32.2539 30.335 33.056L36.0046 41.3277H28.0447L23.2763 34.3343ZM27.9697 24.7467C27.9697 23.5184 27.5816 22.566 26.8056 21.8893C26.0297 21.2125 24.8782 20.8742 23.3514 20.8742H19.2213V28.5819H23.3514C24.8782 28.5819 26.0297 28.2497 26.8056 27.5856C27.5816 26.9213 27.9697 25.9751 27.9697 24.7468V24.7467Z" fill="white"/>
<path d="M77.9719 15.0089C80.3497 15.0089 82.4148 15.4037 84.1671 16.1932C85.9192 16.9828 87.2708 18.1108 88.2221 19.5771C89.1733 21.0434 89.6488 22.7666 89.6488 24.7468C89.6488 26.727 89.1733 28.444 88.2221 29.8978C87.2708 31.3516 85.9192 32.4733 84.1671 33.2629C82.4148 34.0524 80.3498 34.4472 77.9719 34.4472H73.3912V41.3277H65.957V15.0088H77.9719V15.0089ZM77.5213 28.582C79.0481 28.582 80.1997 28.2499 80.9756 27.5857C81.7515 26.9214 82.1396 25.9752 82.1396 24.7469C82.1396 23.5187 81.7515 22.5662 80.9756 21.8895C80.1997 21.2127 79.0481 20.8744 77.5213 20.8744H73.3912V28.5821H77.5213V28.582Z" fill="white"/>
<path fill-rule="evenodd" clip-rule="evenodd" d="M46.6759 53.8465H54.1106V26.547C54.1106 24.4992 52.4381 22.8245 50.3929 22.8245C48.3483 22.8245 46.6758 24.4992 46.6758 26.547V53.8465H46.6759Z" fill="white"/>
<path fill-rule="evenodd" clip-rule="evenodd" d="M49.8736 20.9078C48.8003 19.4236 48.2165 17.089 49.7185 17.1487C51.0664 17.2032 50.6804 20.1297 50.8863 20.8687C58.2152 17.945 51.7658 8.45069 49.3205 7.76147C50.0366 10.9833 47.4702 11.5557 46.6634 14.5344C46.4883 15.1809 46.4588 15.8918 46.5595 16.6174C46.808 18.4076 47.7894 20.5713 49.8735 20.9078H49.8736Z" fill="white"/>
<defs>
<linearGradient id="paint0_linear_212_1061" x1="49.5178" y1="0" x2="49.5178" y2="53.8379" gradientUnits="userSpaceOnUse">
<stop stop-color="#EF6446"/>
<stop offset="1" stop-color="#DB4A2A"/>
</linearGradient>
</defs>
</svg>
