<svg width="242" height="108" viewBox="0 0 242 108" fill="none" xmlns="http://www.w3.org/2000/svg">
<path d="M174 86.7527C163.287 103.678 140.928 106.955 131.706 105.787C112.106 103.289 93.6631 95.6285 79.7389 80.1336C70.7768 70.171 64.366 57.9606 62.2471 45.0082C55.0147 0.89134 100.928 -9.82415 109.003 15.3605C112.463 26.1633 109.987 36.2895 103.858 43.6987C83.6098 68.1655 38.8529 66.5018 2 44.4639" stroke="#A2C7FF" stroke-width="2.36793" stroke-miterlimit="22.9256" stroke-linecap="round" stroke-linejoin="round" stroke-dasharray="6 6"/>
<path fill-rule="evenodd" clip-rule="evenodd" d="M197.767 65.1223C198.545 65.9481 206.743 71.6769 208.247 72.8123C209.803 73.9478 218.104 80.1926 218.986 80.5023C219.816 81.5345 222.462 82.5667 224.485 81.6377C227.339 80.2959 227.91 74.309 228.532 71.0576C228.895 69.148 229.466 67.2384 229.881 65.3288C231.437 57.484 233.149 49.2263 234.965 41.4847C236.885 33.3818 238.286 25.3822 240.101 17.4341C240.724 14.6988 242.592 7.47329 241.813 4.78954C241.295 3.18961 240.413 2.41545 239.323 2.10579C237.092 1.58968 234.031 3.08639 232.164 3.91216C228.947 5.25403 224.952 6.59591 221.528 7.93779C218.052 9.22805 214.732 10.5183 210.997 11.9634C202.177 15.4729 149.363 35.343 148.481 36.272C147.184 36.6849 145.005 38.5945 146.51 40.4525C147.444 41.6911 149.415 42.2588 151.283 42.6717L167.781 47.9876L170.582 48.5553C172.087 48.7618 171.931 48.5553 174.266 47.1102C178.157 44.6845 184.382 40.4525 187.599 38.6461L220.854 17.5374C221.632 17.0213 223.759 15.5245 224.952 16.6084C225.056 16.7632 225.316 16.2987 225.16 17.3309C224.952 18.3115 216.185 25.6918 215.355 26.4144L183.708 54.5938C183.915 54.8002 183.76 54.697 183.915 55.1615C186.094 56.2969 194.551 63.1611 195.744 63.4708C196.315 64.3998 196.47 64.245 197.3 64.7611L197.767 65.1223Z" fill="white"/>
<path fill-rule="evenodd" clip-rule="evenodd" d="M170.581 48.5554C171.567 49.7424 171.1 48.5038 171.826 50.8779C172.138 51.8068 172.397 52.581 172.605 53.51L178.208 71.6253C178.623 73.0188 179.09 76.7864 180.698 76.8896H182.15C182.566 73.3801 182.617 69.4577 182.929 65.8449C183.032 64.0902 183.084 62.0774 183.188 60.2194C183.24 59.2388 183.344 58.413 183.344 57.5356C183.396 56.6066 183.084 55.368 183.914 55.1615C183.759 54.697 183.914 54.8003 183.707 54.5938L215.354 26.4144C216.184 25.6919 224.951 18.3116 225.159 17.331C225.315 16.2987 225.055 16.7632 224.951 16.6084C223.758 15.5246 221.631 17.0213 220.853 17.5374L187.598 38.6461C184.381 40.4525 178.156 44.6846 174.265 47.1103C171.93 48.5554 172.086 48.7618 170.581 48.5554Z" fill="#CBD8E8"/>
<path fill-rule="evenodd" clip-rule="evenodd" d="M180.693 76.8892C180.797 77.044 180.745 77.3537 182.198 77.2505C183.806 77.1473 184.792 76.4247 185.881 75.4957C187.386 74.3603 188.423 73.2248 189.617 72.0894C190.706 71.0572 196.569 65.6381 196.828 65.122H197.762L197.295 64.7607C196.465 64.2446 196.309 64.3994 195.739 63.4704C194.545 63.1608 186.089 56.2966 183.91 55.1611C183.08 55.3676 183.391 56.6062 183.339 57.5352C183.339 58.4126 183.235 59.2384 183.184 60.219C183.08 62.077 183.028 64.0898 182.924 65.8445C182.613 69.4573 182.561 73.3797 182.146 76.8892H180.693Z" fill="#B0C8DB"/>
</svg>
